# xmcd CD database file
#
# Track frame offsets:
#	150
#	12519
#	24754
#	41263
#	54484
#	67988
#	81072
#	95493
#	110027
#	122817
#	136779
#	149330
#	161349
#
# Disc length: 2325 seconds
#
# Revision: 0
# Processed by: cddbd v1.5.2PL0 Copyright (c) Steve Scherf et al.
# Submitted via: CDex 2.22
#
DISCID=a109130d
DTITLE=Chris Janson - Real Friends
DYEAR=2019
DGENRE=Country
TTITLE0=Good Vibes
TTITLE1=Check
TTITLE2=Done
TTITLE3=Normal People
TTITLE4=Say About Me
TTITLE5=Waitin' on 5
TTITLE6=Hawaii on Me
TTITLE7=Mine Does
TTITLE8=God's Gotta Be a Good Ole Boy
TTITLE9=Real Friends (Feat. Blake Shelton)
TTITLE10=Everybody's Going Through Something
TTITLE11=Beer Me
TTITLE12=Country USA
EXTD=YEAR: 2019
EXTT0=
EXTT1=
EXTT2=
EXTT3=
EXTT4=
EXTT5=
EXTT6=
EXTT7=
EXTT8=
EXTT9=
EXTT10=
EXTT11=
EXTT12=
PLAYORDER=
